# xmcd
#
# Track frame offsets:
#	150
#	17342
#	31940
#	48422
#	72642
#	93067
#	107437
#	122402
#	138910
#	156082
#	170637
#	187159
#	211352
#	231742
#	246127
#	261092
#
# Disc length: 3701 seconds
#
# Revision: 1
# Processed by: cddbd v1.5.2PL0 Copyright (c) Steve Scherf et al.
# Submitted via: audiograbber 1.83.01
#
DISCID=da0e7310
DTITLE=Various Artist - SC3275
DYEAR=1900
DGENRE=Karaoke
TTITLE0=Brian McComas - Night Disappear With You
TTITLE1=Toby Keith - I Wanna Talk About Me
TTITLE2=Brad Paisley - Wrapped Around
TTITLE3=Dolly Parton - Shine
TTITLE4=Jamie O'Neal - Shiver
TTITLE5=Cyndi Thomson - Things I Would Do
TTITLE6=Charlie Robison - Right Man For The Job
TTITLE7=Tracy Lawrence - Life Don't Have To Be So Hard
TTITLE8=Brian McComas - Night Disappear With You (vocals)
TTITLE9=Toby Keith - I Wanna Talk About Me (vocals)
TTITLE10=Brad Paisley - Wrapped Around (vocals)
TTITLE11=Dolly Parton - Shine (vocals)
TTITLE12=Jamie O'Neal - Shiver (vocals)
TTITLE13=Cyndi Thomson - Things I Would Do (vocals)
TTITLE14=Charlie Robison - Right Man For The Job (vocals)
TTITLE15=Tracy Lawrence - Life Don't Have To Be So Hard (vocals)
EXTD=
EXTT0=
EXTT1=
EXTT2=
EXTT3=
EXTT4=
EXTT5=
EXTT6=
EXTT7=
EXTT8=
EXTT9=
EXTT10=
EXTT11=
EXTT12=
EXTT13=
EXTT14=
EXTT15=
PLAYORDER=
